<svg xmlns="http://www.w3.org/2000/svg" viewBox="0 0 311.17 170.96"><defs><style>.cls-1{fill:#fff;}</style></defs><title>glotweb_logo.svg</title><g id="Layer_2" data-name="Layer 2"><g id="Layer_1-2" data-name="Layer 1"><path class="cls-1" d="M64.83,47.79c11.25,5.1,16.87,12.3,16.87,23.9,0,18.1-14,31.27-37.42,31.27a37.63,37.63,0,0,1-11.07-1.4,8.43,8.43,0,0,0-3.87,6.85c0,3.34,1.94,6.5,11.25,6.5H54.82c20.56,0,33.91,11.07,33.91,26.36,0,18.62-16,29.69-46.39,29.69C9.31,171,0,160.42,0,141.79H20.21c0,9.32,4,13.36,22.49,13.36,18.09,0,23.36-4.92,23.36-12.3,0-6.85-5.44-11.07-15.81-11.07H36.19c-18.62,0-26.53-8.26-26.53-17.92,0-6.5,4-13,10.9-17.22C9.14,90.66,4.22,82.41,4.22,70.46c0-20.21,16-33.39,38.48-33.39,22,.53,32.15-4.39,43.4-10.36l5.62,17.92C84.69,47.09,75.9,47.79,64.83,47.79ZM26.88,70.11c0,11.24,6.15,18.27,16.52,18.27,10.72,0,16.52-6.68,16.52-18.45S54.29,52.36,43.05,52.36C32.86,52.36,26.88,59.39,26.88,70.11Z"/><path class="cls-1" d="M132.13,117.2a17.69,17.69,0,0,0,5.27-.88l4.74,15.81a41.88,41.88,0,0,1-16,3.16c-13.88,0-21.78-8.26-21.78-23.72V2.46L126.86,0V110C126.86,115.09,128.44,117.2,132.13,117.2Z"/><path class="cls-1" d="M236.85,86.1c0,29.34-16.34,49.19-43.75,49.19s-43.75-18.62-43.75-49.19c0-29.17,16.34-49,43.92-49C220.68,37.07,236.85,55.7,236.85,86.1Zm-63.78,0c0,22.31,6.85,32.15,20,32.15s20-10,20-32.15-6.86-32-19.86-32C180.09,54.12,173.07,64.13,173.07,86.1Z"/><path class="cls-1" d="M287.8,135.29c-18.27-.17-27.94-10.54-27.94-30.39v-49H245.28V39.71h14.58V19.15l22.49-2.63V39.71H304l-2.28,16.16H282.35v48.5c0,9.14,3,12.83,9.84,12.83,3.52,0,7-1.06,11.07-3.52l7.91,14.58A40.61,40.61,0,0,1,287.8,135.29Z"/></g></g></svg>